<?xml version="1.0" standalone="no"?>
<!DOCTYPE svg PUBLIC "-//W3C//DTD SVG 20010904//EN"
 "http://www.w3.org/TR/2001/REC-SVG-20010904/DTD/svg10.dtd">
<svg version="1.0" xmlns="http://www.w3.org/2000/svg"
 width="1080.000000pt" height="303.000000pt" viewBox="0 0 1080.000000 303.000000"
 preserveAspectRatio="xMidYMid meet">

<g transform="translate(0.000000,303.000000) scale(0.100000,-0.100000)"
fill="#000000" stroke="none">
<path d="M955 3021 c-64 -16 -112 -65 -125 -126 l-6 -30 -87 -5 c-76 -4 -90
-8 -113 -31 -16 -16 -28 -42 -31 -67 l-6 -42 -218 0 c-231 0 -256 -4 -302 -48
-61 -57 -57 17 -57 -1187 0 -933 2 -1110 14 -1133 19 -36 65 -78 99 -91 19 -7
188 -11 489 -11 l461 0 206 -118 c113 -65 213 -121 222 -125 11 -3 94 39 225
114 l209 121 30 -18 c232 -137 389 -222 403 -217 26 10 415 234 435 251 16 14
17 38 15 285 l-3 270 -205 118 -205 119 -5 247 -5 247 -207 120 -208 120 0
395 c0 382 -1 396 -21 439 -13 26 -38 54 -62 70 l-40 27 -234 3 -233 3 0 39
c0 30 -7 45 -31 69 -29 30 -34 31 -114 31 l-83 0 -6 35 c-16 84 -116 146 -201
126z m94 -119 c18 -20 22 -33 18 -59 -5 -26 -1 -39 14 -54 16 -16 33 -19 119
-19 l100 0 0 -95 0 -95 -307 2 -308 3 0 90 0 90 101 5 c120 6 134 14 132 75
-4 87 73 121 131 57z m-459 -297 c0 -34 24 -80 52 -99 19 -14 69 -16 345 -16
228 0 330 3 348 12 32 14 55 56 55 98 l0 30 221 0 221 0 29 -29 29 -29 0 -394
0 -393 -207 -120 -208 -120 -3 -246 -2 -246 -206 -118 c-112 -65 -209 -126
-214 -136 -6 -10 -10 -117 -10 -238 l0 -221 -444 0 -443 0 -26 24 c-16 15 -28
39 -32 67 -3 24 -5 514 -3 1089 3 1123 1 1074 53 1099 11 5 113 10 233 10
l212 1 0 -25z m1660 -1089 c2 -8 -55 -44 -275 -171 l-40 -23 -160 92 c-88 51
-159 96 -159 101 1 5 73 50 160 100 l158 92 157 -91 c86 -50 158 -95 159 -100z
m-510 -186 c95 -55 182 -100 193 -100 11 0 99 45 194 100 95 55 176 100 178
100 3 0 4 -86 3 -191 l-3 -191 -180 -104 c-99 -57 -185 -104 -192 -104 -6 0
-92 47 -190 104 l-178 104 -3 191 c-1 105 0 191 2 191 2 0 82 -45 176 -100z
m-57 -455 c119 -68 154 -92 144 -101 -6 -6 -80 -50 -164 -98 l-152 -87 -160
93 c-89 51 -161 96 -161 100 0 10 313 189 326 186 6 -2 81 -43 167 -93z m838
4 c88 -50 159 -94 159 -97 0 -4 -73 -49 -161 -100 l-161 -92 -164 92 c-90 51
-163 95 -164 98 0 6 311 189 324 189 5 1 80 -40 167 -90z m-1199 -284 c116
-67 189 -103 200 -99 10 3 94 50 189 105 94 54 173 99 175 99 2 0 3 -86 2
-191 l-3 -191 -187 -109 -186 -108 -189 109 -188 109 -3 190 c-1 105 0 191 3
191 3 0 87 -47 187 -105z m848 -1 c161 -94 185 -105 206 -95 13 6 95 52 181
102 87 50 161 94 166 96 4 2 7 -83 7 -189 l0 -193 -132 -75 c-72 -41 -156 -89
-187 -107 l-56 -31 -185 107 -185 107 -3 192 c-1 106 -1 192 1 192 2 0 86 -48
187 -106z"/>
<path d="M516 2085 l-89 -105 -53 50 c-29 27 -56 50 -59 50 -23 0 -45 -24 -45
-48 0 -35 124 -162 157 -162 16 0 50 32 115 106 131 150 142 167 129 193 -8
14 -21 21 -39 21 -22 0 -44 -20 -116 -105z"/>
<path d="M762 2019 c-19 -7 -23 -15 -20 -41 l3 -33 366 -3 c316 -2 368 0 379
13 17 21 4 61 -22 69 -37 9 -681 6 -706 -5z"/>
<path d="M523 1596 c-48 -58 -93 -105 -98 -105 -6 -1 -31 19 -55 44 -24 25
-51 45 -60 45 -22 0 -40 -20 -40 -44 1 -26 134 -166 159 -166 15 0 215 219
245 268 11 18 -20 62 -43 62 -12 0 -53 -40 -108 -104z"/>
<path d="M752 1518 c-15 -15 -15 -51 0 -66 9 -9 81 -12 264 -12 216 0 255 2
268 16 9 8 16 22 16 29 0 7 -7 21 -16 29 -13 14 -52 16 -268 16 -183 0 -255
-3 -264 -12z"/>
<path d="M596 1185 c-8 -8 -49 -56 -92 -105 l-77 -91 -47 46 c-38 37 -53 46
-76 43 -24 -2 -30 -8 -32 -32 -3 -24 7 -40 64 -97 41 -41 77 -69 89 -69 21 0
57 34 161 155 87 100 98 119 84 144 -13 25 -52 28 -74 6z"/>
<path d="M752 1018 c-18 -18 -14 -56 7 -68 11 -5 83 -10 163 -10 114 0 148 3
166 16 24 17 29 43 10 62 -17 17 -329 17 -346 0z"/>
<path d="M5213 1766 c-157 -51 -243 -178 -230 -337 7 -85 44 -164 100 -216 23
-21 94 -67 157 -103 140 -77 170 -105 170 -155 0 -74 -52 -128 -121 -127 -73
1 -110 46 -118 141 l-6 66 -90 0 -90 0 1 -85 c0 -67 5 -95 23 -132 63 -131
205 -205 338 -178 71 15 103 31 154 77 62 56 92 123 97 218 8 148 -46 222
-234 324 -54 29 -114 65 -133 79 -62 46 -79 133 -38 193 46 69 116 79 175 25
l37 -34 3 -96 4 -96 95 0 95 0 -4 113 c-4 125 -18 164 -84 237 -71 78 -207
117 -301 86z"/>
<path d="M7645 1767 c-96 -32 -162 -90 -204 -177 l-26 -55 0 -325 c0 -374 2
-387 87 -476 66 -70 131 -98 225 -97 91 0 163 33 227 104 65 72 75 114 77 309
0 91 -2 166 -5 168 -3 1 -74 2 -156 2 l-151 0 3 -92 3 -93 58 -3 57 -3 0 -64
c0 -54 -4 -68 -26 -94 -43 -51 -118 -58 -167 -14 -43 39 -47 68 -47 350 0 247
1 270 20 308 39 81 131 98 184 34 29 -34 34 -52 38 -119 l3 -45 94 0 95 0 -3
70 c-1 39 -9 91 -17 118 -21 64 -99 148 -163 176 -64 27 -154 35 -206 18z"/>
<path d="M9120 1767 c-97 -27 -185 -109 -217 -200 -16 -46 -18 -89 -18 -367
l0 -315 33 -67 c59 -119 160 -183 287 -181 123 2 239 86 284 207 21 57 22 70
19 375 l-3 316 -26 56 c-65 138 -222 215 -359 176z m123 -191 c18 -7 42 -26
52 -42 18 -27 20 -51 23 -304 2 -173 0 -288 -7 -311 -30 -100 -152 -123 -208
-40 -23 33 -23 38 -23 330 0 326 -1 323 64 362 37 23 56 24 99 5z"/>
<path d="M3615 1748 c-3 -7 -4 -258 -3 -558 l3 -545 90 0 90 0 -3 290 -2 290
20 -40 c12 -22 74 -152 139 -290 l117 -250 69 0 70 0 3 558 2 558 -87 -3 -88
-3 3 -310 c3 -187 0 -306 -5 -300 -5 6 -67 146 -138 313 l-128 302 -74 0 c-50
0 -75 -4 -78 -12z"/>
<path d="M4355 1748 c-3 -7 -4 -256 -3 -553 l3 -540 263 -3 263 -2 -3 97 -3
98 -168 3 -168 2 3 138 3 137 168 3 168 2 -3 93 -3 92 -165 2 -165 2 -3 126
-3 125 171 0 171 0 -3 93 -3 92 -258 3 c-201 2 -259 0 -262 -10z"/>
<path d="M5658 1673 c-2 -49 -3 -91 -1 -95 2 -5 51 -8 109 -8 l104 0 0 -460 0
-460 95 0 95 0 0 460 0 460 110 0 111 0 -3 93 -3 92 -306 3 -307 2 -4 -87z"/>
<path d="M6360 1205 l0 -555 95 0 95 0 -2 553 -3 552 -92 3 -93 3 0 -556z"/>
<path d="M6695 1748 c-3 -7 -4 -258 -3 -558 l3 -545 90 0 90 0 -3 290 -3 290
53 -110 c29 -60 91 -191 138 -290 l86 -180 69 0 70 0 0 555 0 555 -85 0 -85 0
3 -310 c1 -175 -1 -305 -6 -300 -5 6 -60 129 -122 275 -62 146 -121 282 -131
303 l-19 37 -71 0 c-46 0 -71 -4 -74 -12z"/>
<path d="M8150 1205 l0 -557 193 4 c180 3 195 5 242 28 70 34 139 108 164 175
20 52 21 77 21 354 0 341 -3 359 -77 441 -25 28 -69 63 -97 78 -50 26 -56 27
-248 30 l-198 4 0 -557z m360 350 c15 -8 38 -27 49 -41 20 -26 21 -38 21 -305
l0 -277 -27 -33 c-36 -42 -79 -59 -153 -59 l-60 0 0 365 0 365 70 0 c43 0 82
-6 100 -15z"/>
<path d="M9635 1318 c-3 -244 -5 -495 -3 -558 l3 -115 263 -3 262 -2 0 100 0
100 -165 0 -165 0 -2 458 -3 457 -91 3 -92 3 -7 -443z"/>
<path d="M10270 1200 l0 -560 263 2 262 3 0 95 0 95 -167 3 -168 2 0 460 0
460 -95 0 -95 0 0 -560z"/>
</g>
</svg>
